<?xml version="1.0" standalone="no"?>
<!DOCTYPE svg PUBLIC "-//W3C//DTD SVG 20010904//EN"
 "http://www.w3.org/TR/2001/REC-SVG-20010904/DTD/svg10.dtd">
<svg version="1.0" xmlns="http://www.w3.org/2000/svg"
 width="700.000000pt" height="700.000000pt" viewBox="0 0 700.000000 700.000000"
 preserveAspectRatio="xMidYMid meet">
<metadata>
Created by potrace 1.11, written by Peter Selinger 2001-2013
</metadata>
<g transform="translate(0.000000,700.000000) scale(0.100000,-0.100000)"
fill="#000000" stroke="none">
<path d="M1894 6765 c-27 -27 -26 -59 4 -82 12 -10 291 -13 1318 -13 l1303 0
15 22 c23 32 20 54 -10 77 -27 21 -27 21 -1316 21 l-1289 0 -25 -25z"/>
<path d="M1894 6385 c-27 -27 -26 -59 4 -82 12 -10 291 -13 1318 -13 l1303 0
15 22 c23 32 20 54 -10 77 -27 21 -27 21 -1316 21 l-1289 0 -25 -25z"/>
<path d="M1913 6020 c-45 -18 -51 -87 -8 -104 9 -3 601 -6 1315 -6 l1299 0 15
22 c23 32 20 54 -10 77 l-27 21 -1281 -1 c-713 0 -1291 -4 -1303 -9z"/>
<path d="M4370 5353 l0 -328 -320 -320 -320 -320 0 -898 0 -898 22 -29 22 -30
-22 -23 c-22 -23 -22 -28 -22 -348 0 -376 6 -416 76 -559 39 -78 62 -109 128
-175 126 -124 241 -181 420 -207 76 -11 95 -10 192 9 276 55 474 234 555 503
23 75 23 77 27 874 l3 799 -26 27 -25 26 25 24 25 23 0 441 0 441 -320 320
-320 320 -2 325 -3 325 -57 3 -58 3 0 -328z m-260 -1178 l-260 -260 0 215 0
215 258 258 257 257 3 -212 2 -213 -260 -260z m900 -49 l0 -208 -260 252 -260
253 0 216 0 216 260 -260 260 -260 0 -209z m-900 -1071 l-260 -260 0 482 0
481 258 252 257 253 3 -474 2 -474 -260 -260z m900 594 l0 -97 -55 -42 c-30
-23 -55 -45 -54 -49 0 -3 25 -26 54 -51 l53 -45 1 -170 1 -170 -260 260 -260
260 0 360 0 360 260 -260 260 -260 0 -96z m0 -1144 l0 -350 -260 260 -260 260
0 350 0 350 260 -260 260 -260 0 -350z m-900 -290 l-260 -260 0 243 0 242 41
45 41 44 -20 28 c-11 15 -30 37 -41 47 l-22 20 258 258 258 258 3 -332 2 -333
-260 -260z m900 -290 c-1 -261 -175 -497 -419 -569 -30 -9 -65 -16 -78 -16
l-23 0 0 582 0 583 260 -260 260 -260 0 -60z m-640 -100 l0 -485 -32 0 c-49 1
-163 44 -227 86 -115 77 -211 207 -242 327 l-12 49 254 254 c140 140 255 254
256 254 2 0 3 -218 3 -485z"/>
<path d="M1913 5640 c-45 -18 -51 -87 -8 -104 9 -3 488 -6 1065 -6 955 0 1050
1 1065 16 24 25 16 76 -15 91 -20 10 -247 13 -1055 12 -569 0 -1040 -4 -1052
-9z"/>
<path d="M532 827 c-31 -33 -30 -96 1 -125 42 -40 137 -20 137 29 0 25 -26 24
-40 -2 -9 -15 -19 -19 -43 -17 -64 6 -61 108 3 108 18 0 33 -6 36 -15 8 -19
44 -20 44 -2 0 48 -100 65 -138 24z"/>
<path d="M1080 830 c0 -11 -4 -20 -10 -20 -5 0 -10 -7 -10 -15 0 -8 4 -15 9
-15 6 0 11 -21 13 -47 3 -44 5 -48 31 -51 19 -2 27 1 27 12 0 9 -7 16 -15 16
-10 0 -15 11 -15 35 0 24 5 35 15 35 8 0 15 7 15 15 0 8 -7 15 -15 15 -8 0
-15 9 -15 20 0 11 -7 20 -15 20 -8 0 -15 -9 -15 -20z"/>
<path d="M1400 827 c0 -21 -4 -23 -37 -19 -43 5 -63 -15 -63 -64 0 -47 22 -64
81 -63 l49 2 0 83 c0 68 -3 84 -15 84 -9 0 -15 -9 -15 -23z m-7 -61 c10 -27
-4 -56 -28 -56 -25 0 -39 23 -30 51 7 22 50 26 58 5z"/>
<path d="M1530 766 l0 -83 49 -2 c59 -1 81 16 81 63 0 43 -29 70 -70 64 -26
-4 -30 -2 -30 19 0 14 -6 23 -15 23 -12 0 -15 -16 -15 -84z m93 -7 c8 -31 -2
-49 -28 -49 -25 0 -39 23 -30 51 9 27 51 25 58 -2z"/>
<path d="M1980 827 c0 -21 -4 -23 -37 -19 -43 5 -63 -15 -63 -64 0 -47 22 -64
81 -63 l49 2 0 83 c0 68 -3 84 -15 84 -9 0 -15 -9 -15 -23z m-7 -61 c10 -27
-4 -56 -28 -56 -25 0 -39 23 -30 51 7 22 50 26 58 5z"/>
<path d="M2040 835 c0 -8 7 -15 15 -15 8 0 15 7 15 15 0 8 -7 15 -15 15 -8 0
-15 -7 -15 -15z"/>
<path d="M2100 765 c0 -69 3 -85 15 -85 12 0 15 16 15 85 0 69 -3 85 -15 85
-12 0 -15 -16 -15 -85z"/>
<path d="M2310 765 c0 -69 3 -85 15 -85 9 0 15 9 15 23 0 37 12 40 31 7 11
-18 27 -30 39 -30 23 0 22 3 -13 54 l-21 29 30 23 29 24 -24 0 c-14 0 -35 -10
-48 -22 l-23 -21 0 41 c0 31 -4 42 -15 42 -12 0 -15 -16 -15 -85z"/>
<path d="M690 744 c0 -50 3 -64 15 -64 10 0 15 10 15 34 0 47 9 66 31 66 10 0
19 6 19 14 0 11 -12 15 -40 14 l-40 0 0 -64z"/>
<path d="M787 792 c-21 -23 -22 -76 -1 -96 18 -19 78 -21 91 -3 21 25 24 69 8
93 -19 30 -74 33 -98 6z m68 -22 c4 -6 -7 -10 -25 -10 -18 0 -29 4 -25 10 3 6
15 10 25 10 10 0 22 -4 25 -10z m5 -50 c0 -5 -11 -10 -24 -10 -14 0 -28 5 -31
10 -4 6 7 10 24 10 17 0 31 -4 31 -10z"/>
<path d="M920 795 c-18 -22 2 -44 24 -26 8 7 25 11 38 9 24 -5 21 -7 -37 -24
-25 -8 -30 -15 -30 -39 0 -30 0 -30 62 -32 l61 -2 -5 57 c-3 31 -11 60 -17 64
-20 14 -83 8 -96 -7z m78 -67 c-5 -15 -58 -24 -58 -9 0 9 20 17 48 20 8 0 12
-5 10 -11z"/>
<path d="M1177 792 c-21 -23 -22 -76 -1 -96 18 -19 78 -21 91 -3 21 25 24 69
8 93 -19 30 -74 33 -98 6z m68 -22 c4 -6 -7 -10 -25 -10 -18 0 -29 4 -25 10 3
6 15 10 25 10 10 0 22 -4 25 -10z m5 -50 c0 -5 -11 -10 -24 -10 -14 0 -28 5
-31 10 -4 6 7 10 24 10 17 0 31 -4 31 -10z"/>
<path d="M1670 800 c0 -5 9 -32 20 -60 24 -61 25 -80 5 -80 -8 0 -15 -7 -15
-15 0 -16 45 -21 54 -6 3 4 19 45 35 90 29 76 29 81 11 81 -14 0 -23 -11 -32
-41 l-12 -42 -18 42 c-9 23 -24 41 -33 41 -8 0 -15 -4 -15 -10z"/>
<path d="M2040 745 c0 -51 3 -65 15 -65 12 0 15 14 15 65 0 51 -3 65 -15 65
-12 0 -15 -14 -15 -65z"/>
<path d="M2160 795 c-18 -22 2 -44 24 -26 8 7 25 11 38 9 24 -5 21 -7 -37 -24
-25 -8 -30 -15 -30 -39 0 -30 0 -30 62 -32 l61 -2 -5 57 c-3 31 -11 60 -17 64
-20 14 -83 8 -96 -7z m78 -67 c-5 -15 -58 -24 -58 -9 0 9 20 17 48 20 8 0 12
-5 10 -11z"/>
<path d="M2442 748 l3 -63 53 -2 52 -1 0 64 c0 49 -3 64 -14 64 -11 0 -16 -14
-18 -47 -3 -40 -6 -48 -23 -48 -17 0 -20 8 -23 48 -2 34 -7 47 -18 47 -12 0
-14 -12 -12 -62z"/>
<path d="M2584 796 c-11 -28 1 -49 33 -60 43 -15 52 -26 20 -26 -15 0 -27 5
-27 10 0 6 -9 10 -20 10 -22 0 -26 -20 -8 -38 17 -17 83 -15 98 3 6 8 10 22 8
31 -3 17 -10 22 -58 43 -22 10 -19 10 18 5 42 -6 52 2 30 24 -17 17 -87 15
-94 -2z"/>
<path d="M2726 794 c-21 -20 -20 -78 0 -99 21 -21 83 -16 98 7 14 23 0 35 -24
20 -39 -24 -68 -3 -55 39 7 20 55 27 55 9 0 -5 7 -10 15 -10 18 0 20 21 3 38
-17 17 -74 15 -92 -4z"/>
<path d="M2860 795 c-18 -22 2 -44 24 -26 8 7 25 11 38 9 24 -5 21 -7 -37 -24
-25 -8 -30 -15 -30 -39 0 -30 0 -30 62 -32 l61 -2 -5 57 c-3 31 -11 60 -17 64
-20 14 -83 8 -96 -7z m78 -67 c-5 -15 -58 -24 -58 -9 0 9 20 17 48 20 8 0 12
-5 10 -11z"/>
<path d="M3000 744 c0 -49 3 -64 14 -64 11 0 16 14 18 48 3 39 6 47 23 47 17
0 20 -8 23 -47 2 -35 7 -48 18 -48 12 0 14 12 12 63 l-3 62 -52 2 -53 1 0 -64z"/>
<path d="M533 570 c-3 -11 -9 -20 -14 -20 -5 0 -9 -7 -9 -15 0 -8 5 -15 10
-15 6 0 10 -22 10 -50 0 -38 4 -50 15 -50 11 0 15 12 15 50 0 28 5 50 10 50
14 0 12 27 -2 33 -8 3 -6 6 5 6 28 2 20 31 -9 31 -17 0 -28 -6 -31 -20z"/>
<path d="M1120 505 c0 -69 3 -85 15 -85 12 0 15 13 15 58 l1 57 36 -57 c23
-37 43 -58 54 -58 17 0 19 9 19 85 0 69 -3 85 -15 85 -12 0 -15 -13 -15 -57
l-1 -58 -36 58 c-23 36 -43 57 -54 57 -17 0 -19 -9 -19 -85z"/>
<path d="M1800 505 c0 -69 3 -85 15 -85 10 0 15 10 15 29 0 26 4 29 40 34 51
7 70 22 70 56 0 40 -18 51 -82 51 l-58 0 0 -85z m105 45 c11 -18 -15 -40 -46
-40 -24 0 -29 4 -29 25 0 22 4 25 34 25 19 0 38 -5 41 -10z"/>
<path d="M2200 575 c0 -8 7 -15 15 -15 8 0 15 7 15 15 0 8 -7 15 -15 15 -8 0
-15 -7 -15 -15z"/>
<path d="M2550 570 c0 -11 -4 -20 -10 -20 -5 0 -10 -7 -10 -15 0 -8 4 -15 9
-15 6 0 11 -21 13 -47 3 -44 5 -48 31 -51 19 -2 27 1 27 12 0 9 -7 16 -15 16
-10 0 -15 11 -15 35 0 24 5 35 15 35 8 0 15 7 15 15 0 8 -7 15 -15 15 -8 0
-15 9 -15 20 0 11 -7 20 -15 20 -8 0 -15 -9 -15 -20z"/>
<path d="M600 484 c0 -50 3 -64 15 -64 10 0 15 10 15 34 0 47 9 66 31 66 10 0
19 6 19 14 0 11 -12 15 -40 14 l-40 0 0 -64z"/>
<path d="M697 532 c-22 -25 -21 -75 1 -95 25 -22 75 -21 95 1 22 25 21 75 -1
95 -25 22 -75 21 -95 -1z m78 -31 c9 -28 -5 -51 -30 -51 -25 0 -39 23 -30 51
8 25 52 25 60 0z"/>
<path d="M830 484 c0 -49 3 -64 14 -64 11 0 16 14 18 48 3 39 6 47 23 47 17 0
20 -8 23 -47 2 -33 8 -48 17 -48 9 0 15 15 17 48 3 39 6 47 23 47 17 0 20 -8
23 -47 2 -35 7 -48 18 -48 12 0 14 12 12 63 l-3 62 -92 1 -93 2 0 -64z"/>
<path d="M1307 532 c-22 -25 -21 -75 1 -95 25 -22 75 -21 95 1 22 25 21 75 -1
95 -25 22 -75 21 -95 -1z m78 -31 c9 -28 -5 -51 -30 -51 -25 0 -39 23 -30 51
8 25 52 25 60 0z"/>
<path d="M1442 488 l3 -63 53 -2 52 -1 0 64 c0 49 -3 64 -14 64 -11 0 -16 -14
-18 -47 -3 -40 -6 -48 -23 -48 -17 0 -20 8 -23 48 -2 34 -7 47 -18 47 -12 0
-14 -12 -12 -62z"/>
<path d="M1580 484 c0 -49 3 -64 14 -64 11 0 16 14 18 48 3 39 6 47 23 47 17
0 20 -8 23 -47 2 -35 7 -48 18 -48 12 0 14 12 12 63 l-3 62 -52 2 -53 1 0 -64z"/>
<path d="M1960 484 c0 -50 3 -64 15 -64 10 0 15 10 15 34 0 47 9 66 31 66 10
0 19 6 19 14 0 11 -12 15 -40 14 l-40 0 0 -64z"/>
<path d="M2057 532 c-22 -25 -21 -75 1 -95 25 -22 75 -21 95 1 22 25 21 75 -1
95 -25 22 -75 21 -95 -1z m78 -31 c9 -28 -5 -51 -30 -51 -25 0 -39 23 -30 51
8 25 52 25 60 0z"/>
<path d="M2200 475 c0 -43 -4 -75 -10 -75 -5 0 -10 -7 -10 -16 0 -10 7 -14 23
-12 21 3 22 8 25 91 2 73 0 87 -13 87 -12 0 -15 -14 -15 -75z"/>
<path d="M2267 532 c-21 -23 -22 -76 -1 -96 18 -19 78 -21 91 -3 21 25 24 69
8 93 -19 30 -74 33 -98 6z m68 -22 c4 -6 -7 -10 -25 -10 -18 0 -29 4 -25 10 3
6 15 10 25 10 10 0 22 -4 25 -10z m5 -50 c0 -5 -11 -10 -24 -10 -14 0 -28 5
-31 10 -4 6 7 10 24 10 17 0 31 -4 31 -10z"/>
<path d="M2406 534 c-21 -20 -20 -78 0 -99 21 -21 83 -16 98 7 14 23 0 35 -24
20 -39 -24 -68 -3 -55 39 7 20 55 27 55 9 0 -5 7 -10 15 -10 18 0 20 21 3 38
-17 17 -74 15 -92 -4z"/>
</g>
</svg>
